<?xml version="1.0" standalone="no"?>
<!DOCTYPE svg PUBLIC "-//W3C//DTD SVG 20010904//EN"
 "http://www.w3.org/TR/2001/REC-SVG-20010904/DTD/svg10.dtd">
<svg version="1.0" xmlns="http://www.w3.org/2000/svg"
 width="433.000000pt" height="577.000000pt" viewBox="0 0 433.000000 577.000000"
 preserveAspectRatio="xMidYMid meet">

<g transform="translate(0.000000,577.000000) scale(0.100000,-0.100000)"
fill="#000000" stroke="none">
<path d="M2819 5598 c-26 -18 -90 -71 -144 -118 -185 -161 -203 -175 -289
-219 -65 -33 -89 -41 -99 -33 -16 14 -68 19 -84 9 -6 -4 -14 -3 -18 2 -6 10
-20 8 -60 -9 -11 -5 -37 -11 -57 -15 -20 -3 -38 -10 -40 -16 -2 -5 -32 -12
-68 -15 -67 -5 -110 -24 -110 -49 0 -17 -16 -20 -25 -6 -8 14 -45 9 -45 -7 0
-9 -10 -12 -32 -10 -32 3 -53 28 -24 28 21 0 21 16 0 24 -23 9 -24 8 -24 -19
0 -33 -11 -31 -32 5 -13 23 -24 30 -47 30 -31 0 -50 -28 -35 -51 4 -8 3 -9 -4
-5 -7 4 -12 3 -12 -3 0 -19 -61 -23 -104 -6 -68 28 -138 66 -190 106 -66 50
-163 99 -196 99 -55 0 -81 -66 -69 -175 9 -74 68 -272 93 -310 8 -12 18 -40
21 -61 4 -21 18 -82 33 -134 21 -78 25 -112 22 -190 -7 -214 -5 -347 7 -371
20 -39 63 -211 63 -250 0 -23 -7 -42 -20 -54 -11 -10 -20 -24 -20 -30 0 -7 -9
-24 -21 -38 -11 -15 -19 -32 -18 -39 5 -44 -4 -80 -26 -104 -34 -37 -83 -141
-94 -201 -6 -26 -21 -93 -35 -148 -14 -55 -27 -111 -30 -125 -3 -14 -13 -52
-22 -85 -8 -33 -20 -76 -25 -95 -5 -19 -11 -77 -13 -128 -9 -167 -45 -347 -88
-438 -21 -45 -38 -86 -38 -91 0 -6 -13 -28 -28 -49 -24 -33 -30 -53 -35 -121
-5 -66 -12 -93 -38 -138 -29 -51 -31 -61 -25 -115 5 -39 3 -67 -5 -82 -33 -61
-28 -377 7 -474 21 -58 64 -114 162 -207 17 -16 49 -74 76 -135 76 -176 90
-193 126 -151 19 21 21 21 16 4 -6 -19 -5 -18 11 2 27 33 77 41 142 25 31 -8
61 -18 68 -23 12 -11 47 -5 106 17 22 8 37 10 37 4 0 -6 5 -9 12 -7 16 3 52
-74 68 -143 7 -30 18 -75 25 -100 7 -25 21 -90 30 -145 10 -55 21 -114 25
-132 5 -20 4 -35 -4 -43 -8 -8 -7 -10 6 -5 13 5 21 0 29 -17 6 -14 25 -33 42
-44 29 -17 53 -19 234 -19 l202 0 -6 40 c-3 22 -10 50 -14 63 -5 13 -9 35 -9
49 0 25 2 25 43 18 23 -4 56 -8 72 -9 l30 -3 6 -109 c3 -60 9 -117 14 -126 9
-22 28 -23 44 -4 7 8 35 20 64 26 29 7 65 19 80 27 39 20 158 41 207 38 33 -3
40 0 40 15 0 22 36 50 65 51 20 0 20 0 0 8 -11 5 -28 4 -39 -1 -36 -19 -41 4
-41 196 l0 184 29 25 c18 16 24 27 17 31 -12 8 -6 47 15 86 7 14 15 33 18 43
3 9 15 17 28 17 17 0 20 2 9 9 -11 7 -9 10 10 13 33 5 89 -13 89 -28 0 -7 4
-15 9 -19 5 -3 15 19 21 48 11 53 12 55 66 78 39 16 67 37 93 69 20 25 39 47
42 50 4 3 15 24 26 48 13 28 31 49 54 60 26 13 35 24 37 47 8 96 14 117 43
142 16 15 29 30 29 35 0 5 -11 26 -25 46 -30 43 -31 59 -8 107 l17 36 -28 23
c-31 24 -31 19 -7 131 11 50 0 115 -20 115 -5 0 -9 6 -9 14 0 8 -15 23 -32 33
-27 16 -40 37 -70 114 -21 52 -38 100 -38 107 0 6 -10 31 -22 54 -21 40 -23
58 -25 241 -3 189 -14 313 -47 497 -25 143 -31 267 -21 405 8 96 -2 123 -72
210 -42 51 -54 60 -86 63 -24 2 -37 -1 -37 -9 0 -8 -11 -9 -32 -5 l-33 6 25
-20 c14 -11 30 -20 36 -20 7 0 19 -12 29 -26 9 -14 30 -31 47 -38 29 -13 29
-13 7 -19 -21 -6 -22 -7 -7 -24 16 -17 15 -18 -18 -17 -32 2 -34 0 -34 -31 0
-44 -9 -48 -54 -26 -32 17 -36 17 -36 2 0 -9 16 -36 35 -60 33 -41 46 -81 26
-81 -4 0 -21 10 -37 22 -26 21 -27 21 -20 3 24 -57 19 -71 -22 -66 -7 1 -11
-2 -10 -6 4 -20 -16 -83 -27 -83 -6 0 -20 9 -30 20 -23 26 -34 25 -45 -2 -5
-13 -9 -17 -9 -10 -1 20 -21 14 -21 -8 0 -10 -6 -23 -13 -27 -8 -4 -18 -16
-23 -25 -8 -15 -19 -8 -81 55 l-72 72 14 50 c20 78 141 309 169 324 16 9 22
19 18 33 -4 15 -7 17 -13 6 -7 -10 -9 -8 -9 6 0 20 4 21 -120 -11 -41 -11 -88
-21 -105 -21 -16 -1 -52 -6 -80 -12 -27 -6 -61 -10 -75 -10 -55 1 -122 -7
-128 -16 -4 -5 -16 -9 -27 -9 -14 0 -21 -9 -25 -30 -6 -29 -6 -29 -12 -6 -6
21 -11 23 -40 17 -18 -4 -55 -10 -81 -13 -37 -4 -47 -8 -43 -20 3 -8 6 -21 6
-29 0 -8 16 -22 36 -30 45 -19 48 -21 156 -124 98 -93 152 -165 142 -190 -6
-16 -31 -105 -70 -252 -13 -48 -26 -133 -30 -189 -6 -86 -11 -105 -30 -128
-19 -21 -23 -23 -24 -8 0 9 -6 17 -14 17 -8 0 -21 9 -29 21 -12 17 -19 19 -35
10 -11 -6 -28 -8 -36 -5 -9 4 -23 1 -31 -6 -9 -7 -15 -8 -15 -2 0 5 -11 13
-25 16 -14 4 -25 13 -25 21 0 8 6 12 14 9 7 -3 21 3 31 12 15 16 15 18 1 26
-18 10 -22 53 -6 63 17 11 11 23 -15 29 -17 4 -25 13 -25 27 0 20 -1 20 -24 6
-38 -25 -39 -7 -1 30 36 35 44 53 23 53 -9 0 -9 3 -1 11 6 6 8 20 5 31 -4 16
-11 19 -33 14 -21 -4 -29 -2 -29 9 0 21 -21 30 -32 14 -7 -11 -11 -11 -15 -1
-2 7 -10 18 -17 25 -6 6 -17 24 -23 40 -12 26 -33 37 -33 17 0 -17 -18 -11
-44 15 -17 16 -23 32 -19 47 4 18 3 20 -6 8 -6 -8 -11 -23 -11 -33 0 -17 -1
-17 -16 -3 -8 9 -13 20 -10 25 3 5 -2 8 -12 7 -13 -1 -16 6 -15 29 1 17 0 23
-4 15 -12 -30 -43 -40 -43 -14 0 10 -6 13 -19 9 -10 -3 -23 1 -30 9 -10 11 -8
23 8 55 26 51 27 65 3 52 -13 -7 -23 -6 -30 1 -9 9 -15 9 -24 0 -18 -18 -28
-15 -28 10 0 21 0 21 -22 2 -23 -21 -23 -21 -1 34 3 6 1 12 -5 12 -14 0 -24
38 -22 83 1 21 -4 44 -10 52 -6 8 -8 19 -4 26 10 18 12 79 2 79 -5 0 -18 -5
-29 -10 -28 -16 -23 -6 15 32 41 40 59 86 30 73 -11 -4 -28 -10 -39 -13 -18
-4 -18 -3 4 21 13 15 32 29 43 33 26 8 22 23 -4 18 -13 -3 -6 4 16 15 54 28
54 29 -1 24 l-48 -4 31 15 c17 7 38 24 47 36 15 22 17 22 56 7 l40 -16 96 45
c81 39 296 104 341 104 8 0 32 12 54 26 33 22 38 29 28 41 -7 9 -8 17 -2 21
10 8 29 43 44 85 6 16 19 31 30 34 11 3 20 12 20 20 0 8 11 24 25 37 14 13 32
40 40 60 8 20 20 36 25 36 6 0 10 14 10 30 0 17 4 30 8 30 5 0 14 23 21 50 13
50 29 62 50 36 9 -10 9 -20 0 -39 -7 -15 -8 -33 -3 -44 4 -10 12 -40 18 -67 9
-39 17 -53 41 -66 17 -10 33 -15 38 -13 4 2 10 -3 13 -11 3 -9 12 -16 19 -16
7 0 26 -7 41 -15 16 -8 44 -15 62 -15 17 0 32 -5 32 -10 0 -6 12 -15 26 -20
14 -6 41 -28 61 -50 l35 -39 160 4 c89 2 164 7 168 12 28 32 80 328 81 466 1
66 -4 86 -29 142 -17 36 -41 75 -54 88 -36 36 -86 119 -89 147 -1 14 1 47 6
73 5 36 3 66 -10 114 -15 55 -17 89 -12 207 l7 141 49 110 c77 172 77 177 0
123z m-689 -413 c0 -8 -4 -15 -10 -15 -5 0 -7 7 -4 15 4 8 8 15 10 15 2 0 4
-7 4 -15z m-301 -540 c0 -5 -11 10 -24 35 -13 25 -24 50 -24 55 0 6 11 -10 24
-35 13 -25 24 -49 24 -55z m-48 -22 c13 -16 12 -17 -3 -4 -10 7 -18 15 -18 17
0 8 8 3 21 -13z m-3 -413 c12 0 22 -4 22 -10 0 -16 -54 -12 -76 6 -18 15 -18
15 6 10 14 -3 35 -6 48 -6z m583 -1467 c13 -15 11 -16 -15 -9 -21 5 -31 3 -41
-11 -11 -14 -16 -16 -26 -5 -17 16 -3 29 36 35 17 2 31 5 31 6 1 0 8 -6 15
-16z m-120 -65 c1 -7 1 -17 0 -21 -1 -4 5 -15 14 -23 11 -11 19 -12 34 -4 11
5 26 10 33 9 10 0 10 -2 0 -6 -10 -4 -10 -8 -1 -19 9 -11 8 -15 -5 -20 -9 -3
-24 -3 -33 0 -9 4 -20 1 -24 -6 -6 -9 -13 -8 -28 6 -21 19 -27 50 -15 80 7 19
24 21 25 4z m369 -13 c30 -16 43 -42 15 -31 -8 3 -15 0 -16 -7 0 -9 -2 -9 -6
1 -2 6 -18 12 -35 12 -27 0 -30 -3 -24 -22 3 -13 6 -31 6 -40 0 -10 14 -33 31
-53 18 -20 29 -41 25 -50 -3 -8 -1 -15 4 -15 6 0 10 5 10 12 0 6 10 22 22 35
12 13 16 23 10 23 -17 0 -15 16 4 34 25 26 37 9 29 -43 -9 -62 -20 -80 -45
-74 -11 3 -20 0 -20 -6 0 -13 -50 -7 -59 7 -3 4 -19 25 -34 45 -20 25 -27 42
-22 57 4 11 2 20 -4 20 -18 0 -12 24 10 43 12 11 18 25 15 34 -14 35 32 45 84
18z m-240 -35 c0 -5 -5 -10 -11 -10 -5 0 -7 5 -4 10 3 6 8 10 11 10 2 0 4 -4
4 -10z m280 -30 c8 -5 11 -12 7 -16 -4 -4 -15 0 -24 9 -18 18 -8 23 17 7z
m-516 -133 c41 -21 45 -25 33 -41 -13 -18 -14 -18 -33 2 -15 16 -28 20 -58 16
-25 -3 -37 -1 -34 7 2 6 7 9 11 7 5 -2 13 5 18 15 12 21 9 22 63 -6z m38 -83
c-2 -13 -11 -24 -18 -24 -8 0 -14 -4 -14 -8 0 -5 -12 -14 -26 -21 -22 -10 -30
-9 -44 4 -9 8 -22 15 -29 15 -22 0 -1 18 29 25 17 4 30 10 30 15 0 9 23 16 56
17 17 0 20 -4 16 -23z m146 -72 c2 -7 8 -10 13 -6 17 10 9 -35 -12 -70 -23
-39 -26 -41 -49 -26 -13 8 -13 13 3 41 23 42 3 59 -25 23 -26 -32 -62 -33 -52
-1 10 35 23 46 57 49 46 5 60 3 65 -10z m247 -1 c3 -5 -6 -18 -20 -29 -14 -11
-25 -24 -25 -29 0 -6 -10 -18 -21 -29 -22 -19 -22 -19 -17 9 3 15 1 27 -3 27
-22 0 -6 29 24 44 37 18 53 20 62 7z m-467 -18 c15 -10 34 -27 42 -38 17 -23
23 -116 9 -151 -5 -15 -5 -24 1 -24 6 0 10 -10 10 -22 0 -13 11 -45 25 -72 14
-27 25 -60 25 -72 0 -12 3 -24 8 -26 12 -5 38 -72 35 -89 -3 -12 -11 -15 -26
-11 -19 5 -20 3 -9 -10 10 -12 10 -22 3 -37 -6 -12 -16 -30 -21 -41 -6 -12 -8
-25 -5 -29 3 -5 -4 -20 -15 -32 -16 -20 -19 -21 -20 -7 0 22 -35 41 -61 33
-13 -4 -28 0 -41 12 -11 10 -22 17 -24 16 -10 -6 -33 10 -27 20 4 7 0 8 -12 4
-9 -4 -24 -2 -31 4 -7 6 -18 8 -24 4 -5 -3 -12 0 -15 7 -7 22 -13 168 -6 168
3 0 7 16 8 36 1 19 6 41 12 48 6 7 13 43 15 80 2 37 8 72 14 79 5 7 12 26 16
42 4 17 16 37 27 45 11 9 21 23 23 30 5 27 18 50 27 50 6 0 22 -8 37 -17z m17
-1281 c44 -28 105 -94 105 -115 0 -10 6 -30 13 -45 18 -39 7 -432 -14 -489 -8
-23 -9 -23 -69 16 -34 22 -83 47 -111 56 -41 14 -49 21 -49 41 0 14 -12 71
-26 127 -20 77 -25 116 -20 159 4 39 1 68 -9 92 -8 19 -15 54 -15 76 0 35 3
40 23 40 12 0 45 14 72 30 59 35 61 35 100 12z"/>
<path d="M2520 2580 c0 -5 5 -10 11 -10 5 0 7 5 4 10 -3 6 -8 10 -11 10 -2 0
-4 -4 -4 -10z"/>
<path d="M2537 2554 c-8 -14 3 -54 14 -54 11 0 11 17 0 44 -4 11 -10 15 -14
10z"/>
<path d="M2080 2360 c-12 -8 -11 -10 8 -10 12 0 22 5 22 10 0 13 -11 13 -30 0z"/>
<path d="M2598 3953 c-11 -3 -16 -13 -15 -31 2 -25 8 -28 82 -44 111 -23 165
-23 165 0 0 9 6 29 14 44 8 15 12 29 8 32 -6 7 -228 6 -254 -1z"/>
<path d="M2268 3895 c-8 -18 -17 -24 -30 -19 -10 3 -18 1 -18 -4 0 -6 -9 -8
-20 -5 -11 3 -20 11 -20 18 0 15 -19 24 -37 18 -9 -3 -1 -20 23 -48 20 -24 37
-52 38 -61 4 -26 -24 -53 -62 -60 -18 -4 -36 -12 -38 -19 -3 -7 -24 -16 -47
-19 -48 -8 -67 -21 -67 -48 0 -15 5 -18 19 -13 11 3 22 2 25 -3 6 -11 54 -4
61 8 7 12 64 -6 86 -26 10 -9 23 -13 30 -8 7 4 27 9 43 11 17 2 32 7 35 12 4
4 21 16 39 25 25 13 37 14 47 6 10 -8 18 -4 34 16 11 14 19 30 16 34 -2 4 -24
10 -49 13 -83 12 -160 61 -126 82 6 3 10 14 10 23 0 9 11 30 25 46 29 33 31
46 10 46 -9 0 -21 -11 -27 -25z m-18 -205 c0 -5 -4 -10 -9 -10 -5 0 -17 -3
-27 -7 -16 -6 -17 -5 -4 10 17 18 40 22 40 7z"/>
<path d="M2580 3835 c0 -22 69 -47 118 -43 41 3 46 0 43 -33 -2 -17 81 -75
116 -81 16 -3 18 4 18 62 l0 65 -65 0 c-36 0 -87 7 -115 17 -79 26 -115 30
-115 13z"/>
<path d="M1680 3815 c-136 -37 -234 -73 -278 -101 l-24 -15 53 -50 c60 -58 72
-59 136 -4 23 19 45 35 49 35 4 0 17 8 28 19 31 28 138 81 149 74 5 -3 -2 -12
-16 -20 -27 -14 -55 -53 -38 -53 14 0 111 79 111 91 0 6 -9 13 -20 16 -11 3
-20 12 -20 19 0 19 -29 16 -130 -11z"/>
<path d="M2550 3806 c0 -2 7 -7 16 -10 8 -3 12 -2 9 4 -6 10 -25 14 -25 6z"/>
<path d="M1801 3714 c-30 -38 -24 -63 7 -32 10 10 14 10 20 0 11 -17 62 7 62
29 0 37 -61 38 -89 3z"/>
<path d="M2885 3610 c3 -5 -3 -10 -15 -10 -14 0 -19 -4 -13 -12 4 -7 8 -17 9
-23 0 -5 2 -17 3 -25 1 -8 13 -28 27 -45 l25 -30 -4 66 c-4 68 -11 89 -28 89
-6 0 -7 -4 -4 -10z"/>
<path d="M2560 3389 c0 -8 58 -39 75 -39 16 0 1 22 -25 35 -34 18 -50 19 -50
4z"/>
<path d="M1235 654 c32 -47 38 -53 29 -31 -4 12 -1 17 10 17 27 0 18 17 -16
31 -18 7 -37 15 -41 17 -4 2 4 -13 18 -34z"/>
<path d="M1262 570 c0 -14 2 -19 5 -12 2 6 2 18 0 25 -3 6 -5 1 -5 -13z"/>
<path d="M1551 206 c-9 -10 -6 -12 14 -8 29 5 31 8 11 15 -8 3 -19 0 -25 -7z"/>
<path d="M1395 170 c-4 -6 3 -10 14 -10 25 0 27 6 6 13 -8 4 -17 2 -20 -3z"/>
</g>
</svg>
