<?xml version="1.0" standalone="no"?>
<!DOCTYPE svg PUBLIC "-//W3C//DTD SVG 20010904//EN"
 "http://www.w3.org/TR/2001/REC-SVG-20010904/DTD/svg10.dtd">
<svg version="1.0" xmlns="http://www.w3.org/2000/svg"
 width="433.000000pt" height="577.000000pt" viewBox="0 0 433.000000 577.000000"
 preserveAspectRatio="xMidYMid meet">

<g transform="translate(0.000000,577.000000) scale(0.100000,-0.100000)"
fill="#000000" stroke="none">
<path d="M2815 3833 c-38 -4 -101 -25 -190 -64 -41 -17 -121 -43 -140 -44 -5
0 -15 -3 -20 -7 -42 -26 -131 -50 -205 -54 -99 -5 -131 -11 -168 -30 -15 -8
-33 -14 -41 -14 -29 0 -171 -95 -183 -123 -9 -20 -24 -30 -53 -38 -22 -5 -62
-16 -90 -24 -27 -7 -81 -19 -119 -25 -83 -13 -121 -32 -129 -60 -6 -23 24
-130 46 -165 8 -11 19 -51 26 -90 12 -66 11 -76 -13 -165 -31 -115 -30 -204 4
-277 93 -203 122 -250 199 -331 49 -50 52 -52 105 -52 52 0 81 -12 54 -23 -8
-4 -7 -6 4 -6 11 -1 15 -7 11 -21 -3 -11 -8 -20 -12 -20 -17 1 -78 36 -77 45
0 5 -7 11 -16 13 -18 3 -25 -12 -10 -21 8 -6 0 -273 -10 -282 -3 -4 -23 -2
-43 4 -42 11 -126 -2 -160 -25 -28 -20 -62 -17 -103 8 l-35 21 -241 -16 c-133
-9 -403 -19 -600 -21 -340 -5 -361 -4 -397 14 -21 11 -41 25 -45 31 -13 22
-102 56 -133 51 l-31 -4 0 -105 c0 -89 3 -111 21 -144 30 -52 96 -97 161 -109
62 -12 586 -26 1088 -29 195 -1 396 -6 445 -11 50 -5 93 -10 97 -10 3 0 16 20
28 45 12 24 30 47 41 50 10 4 19 10 19 15 0 4 27 7 60 6 49 -2 63 -7 79 -27
11 -13 20 -18 21 -11 0 17 13 15 38 -8 12 -11 19 -27 16 -35 -4 -9 0 -15 9
-15 9 0 21 -8 26 -17 9 -16 10 -16 11 -2 0 20 28 45 37 35 4 -4 1 -12 -7 -17
-12 -9 -12 -10 2 -5 11 3 23 -3 31 -14 8 -11 16 -18 19 -15 6 7 43 -87 39
-100 -1 -5 7 -1 19 10 21 19 35 20 206 18 168 -2 184 -1 185 15 3 66 27 108
74 127 38 17 91 28 120 27 11 -1 47 -2 80 -2 39 -1 73 -8 98 -20 21 -11 44
-20 53 -20 31 0 85 -88 76 -123 -2 -5 1 -6 6 -3 5 3 26 -4 48 -14 30 -16 58
-20 129 -20 82 1 88 2 65 15 -16 9 -29 10 -37 4 -8 -7 -14 -5 -21 7 -9 16 -11
16 -26 1 -9 -9 -22 -14 -29 -12 -7 2 -24 6 -39 9 -16 4 -28 13 -28 21 0 31 32
93 51 98 11 3 18 11 17 18 -2 8 7 15 19 17 12 2 24 13 27 27 5 19 16 26 62 35
48 10 58 9 73 -4 10 -9 22 -16 27 -16 32 0 52 -151 24 -186 -14 -16 -13 -17 5
-10 11 5 72 17 135 28 63 11 133 28 156 37 38 17 41 22 63 97 59 200 100 405
101 499 0 28 -7 78 -16 110 -10 40 -14 84 -11 130 7 94 -41 407 -69 452 -8 12
-21 64 -30 115 -23 138 -50 211 -86 237 -11 7 -17 19 -14 27 3 8 -3 22 -14 31
-10 9 -17 20 -14 24 2 4 -5 10 -16 14 -11 3 -20 11 -20 16 0 5 -9 9 -19 9 -12
0 -21 9 -25 25 -4 16 -13 25 -26 25 -11 0 -20 6 -20 13 0 7 -11 23 -25 35 -14
12 -25 26 -25 32 0 5 -11 10 -25 10 -14 0 -25 5 -25 11 0 15 -39 48 -73 61
-15 5 -34 23 -42 38 -10 19 -27 31 -59 40 -24 6 -55 20 -68 31 -12 10 -54 43
-93 74 -48 38 -87 60 -125 70 -30 9 -69 20 -86 25 -29 10 -96 11 -179 3z
m-822 -1290 c-7 -2 -21 -2 -30 0 -10 3 -4 5 12 5 17 0 24 -2 18 -5z m234 -55
c3 -78 28 -158 48 -158 7 0 15 -6 18 -14 3 -8 21 -14 47 -14 63 -1 104 -13
118 -33 7 -11 20 -19 28 -19 9 0 22 -7 31 -15 8 -8 19 -13 24 -10 5 4 9 -1 9
-9 0 -8 -5 -18 -10 -21 -19 -12 9 -33 51 -40 23 -4 53 -19 71 -35 40 -36 18
-33 -80 12 -50 23 -67 18 -24 -7 16 -10 34 -26 41 -36 10 -17 5 -16 -29 6 -47
30 -65 32 -32 5 34 -28 23 -46 -11 -20 -18 15 -33 19 -45 14 -24 -11 -82 -13
-82 -3 0 5 -5 9 -11 9 -5 0 -7 -4 -4 -10 4 -6 -13 -10 -44 -10 -42 0 -51 3
-51 17 0 10 11 27 24 38 13 11 31 38 40 60 l17 40 -22 -23 c-15 -17 -28 -22
-45 -18 -14 4 -24 2 -24 -4 0 -5 8 -10 17 -10 21 0 8 -13 -18 -17 -11 -2 -22
4 -25 12 -4 8 -13 15 -21 15 -13 0 -13 -2 -2 -17 13 -15 10 -15 -26 -9 l-40 8
25 -29 c14 -15 30 -31 35 -35 14 -11 -15 -28 -40 -23 -11 2 -51 7 -89 10 -53
5 -73 11 -83 25 -8 11 -21 20 -29 20 -10 0 -13 7 -8 25 4 17 2 25 -7 25 -10 1
-9 5 4 14 9 7 17 18 17 23 0 6 12 18 26 28 14 9 32 32 40 51 8 19 18 33 22 32
10 -4 122 116 122 131 0 11 18 51 23 51 1 0 3 -15 4 -32z m535 -226 c8 -8 2
-10 -24 -6 -20 4 -38 2 -42 -4 -3 -6 -24 -8 -49 -5 -48 6 -51 8 -43 21 8 13
145 7 158 -6z m55 -8 c-3 -3 -12 -4 -19 -1 -8 3 -5 6 6 6 11 1 17 -2 13 -5z
m-50 -59 c17 -18 17 -19 -2 -11 -11 5 -51 12 -88 16 -95 11 -98 23 -5 18 57
-4 81 -9 95 -23z m-96 -29 c32 -10 37 -14 19 -14 -14 -1 -50 8 -80 18 -44 16
-48 19 -19 15 19 -3 55 -11 80 -19z m-217 -126 c4 0 4 5 1 10 -3 6 0 10 8 10
7 0 19 -11 25 -25 15 -32 16 -85 2 -85 -5 0 -10 -9 -10 -20 0 -11 6 -20 13
-20 21 0 49 -36 44 -57 -4 -14 -7 -12 -18 14 -10 24 -18 31 -37 29 -14 -2 -29
-12 -35 -22 -12 -22 -33 -44 -41 -44 -10 0 -7 58 5 106 6 25 20 51 30 58 19
13 19 14 -1 36 -11 13 -20 28 -20 34 0 6 7 3 14 -6 7 -10 16 -18 20 -18z m187
13 c13 -16 12 -17 -3 -4 -17 13 -22 21 -14 21 2 0 10 -8 17 -17z m-229 -43
c-3 -8 -15 -31 -26 -50 -12 -19 -28 -47 -35 -62 -17 -33 -38 -37 -43 -8 -3 17
-6 18 -28 7 -21 -11 -27 -10 -42 5 -21 21 -23 38 -6 38 6 0 1 12 -13 26 -14
15 -31 23 -41 21 -13 -4 -18 1 -18 14 0 14 7 19 25 19 14 0 25 -5 25 -10 0 -7
25 -10 65 -8 45 1 65 6 65 15 0 7 9 13 20 13 10 0 25 6 32 14 11 12 14 11 19
-3 3 -9 4 -23 1 -31z"/>
<path d="M2260 1960 c0 -5 5 -10 11 -10 5 0 7 5 4 10 -3 6 -8 10 -11 10 -2 0
-4 -4 -4 -10z"/>
<path d="M3401 1574 c0 -11 3 -14 6 -6 3 7 2 16 -1 19 -3 4 -6 -2 -5 -13z"/>
</g>
</svg>
