<?xml version="1.0" standalone="no"?>
<!DOCTYPE svg PUBLIC "-//W3C//DTD SVG 20010904//EN"
 "http://www.w3.org/TR/2001/REC-SVG-20010904/DTD/svg10.dtd">
<svg version="1.0" xmlns="http://www.w3.org/2000/svg"
 width="433.000000pt" height="577.000000pt" viewBox="0 0 433.000000 577.000000"
 preserveAspectRatio="xMidYMid meet">

<g transform="translate(0.000000,577.000000) scale(0.100000,-0.100000)"
fill="#000000" stroke="none">
<path d="M1415 5319 c-64 -26 -74 -35 -95 -84 -41 -96 -54 -183 -56 -390 -1
-138 -5 -200 -13 -203 -7 -2 -11 -31 -11 -75 0 -53 -5 -82 -20 -110 -11 -20
-20 -47 -20 -60 0 -13 -14 -39 -31 -58 -16 -19 -38 -52 -48 -74 -10 -22 -25
-46 -34 -54 -10 -7 -17 -19 -17 -26 0 -7 -11 -29 -25 -49 -13 -20 -22 -36 -18
-36 3 0 1 -6 -4 -12 -6 -7 -13 -25 -17 -40 -3 -16 -10 -28 -15 -28 -5 0 -8
-16 -5 -35 2 -19 0 -35 -5 -35 -12 0 -31 -58 -34 -104 -2 -19 -6 -38 -10 -42
-4 -4 -7 -15 -7 -25 0 -10 -9 -23 -20 -29 -11 -6 -19 -16 -17 -23 1 -6 -8 -13
-20 -15 -13 -2 -23 -9 -23 -15 0 -16 -31 -43 -59 -52 -12 -3 -21 -11 -21 -16
0 -5 -11 -14 -25 -19 -14 -5 -25 -13 -25 -18 0 -5 -18 -18 -40 -31 -22 -12
-38 -26 -35 -31 6 -10 -29 -32 -37 -24 -3 3 -8 -4 -11 -16 -3 -11 0 -20 6 -20
7 0 -4 -15 -23 -33 -19 -17 -48 -52 -64 -77 -16 -25 -40 -53 -52 -63 -13 -10
-26 -27 -29 -38 -4 -12 -13 -29 -21 -38 -8 -9 -15 -20 -16 -26 0 -5 -14 -18
-30 -27 -25 -16 -27 -20 -16 -39 10 -17 11 -23 0 -26 -6 -3 -10 -9 -6 -14 3
-5 -5 -13 -18 -18 -34 -13 -52 -38 -53 -75 -1 -17 -7 -44 -13 -59 -7 -16 -12
-32 -12 -36 0 -4 -8 -16 -19 -25 -18 -17 -43 -74 -55 -128 -4 -16 -12 -28 -19
-28 -7 0 -28 -16 -47 -35 -23 -24 -47 -38 -72 -42 l-38 -6 0 -223 0 -224 39 6
c77 12 171 -56 171 -124 0 -23 36 -74 110 -157 20 -22 47 -66 60 -97 19 -47
34 -65 81 -98 32 -22 68 -54 80 -71 12 -17 44 -45 71 -61 28 -17 105 -80 172
-140 128 -114 113 -107 286 -155 75 -21 117 -44 176 -95 67 -59 161 -115 209
-123 22 -4 60 -16 85 -25 37 -14 68 -16 177 -12 89 3 148 1 180 -8 26 -7 107
-22 180 -34 l131 -22 78 38 c44 21 93 38 110 38 23 0 39 9 60 33 16 18 42 37
58 42 26 9 31 18 44 73 10 40 20 62 29 62 10 0 12 6 8 21 -5 15 -4 19 4 15 7
-5 11 6 11 34 0 27 5 43 15 46 8 4 18 24 21 45 5 29 11 39 25 39 15 0 19 7 19
35 0 35 6 39 47 38 7 -1 11 3 8 7 -3 4 2 10 10 14 9 3 12 12 8 22 -5 13 -2 15
15 10 19 -7 20 -4 16 42 -3 39 -1 51 11 56 12 4 13 10 6 24 -7 14 -6 24 4 38
18 24 18 34 -1 79 -14 35 -16 36 -29 19 -8 -11 -11 -29 -8 -42 6 -24 5 -24
-26 -7 -18 9 -35 23 -38 30 -3 8 -8 13 -13 10 -8 -5 -43 31 -59 63 -13 25 -31
29 -31 6 0 -8 -5 -12 -10 -9 -6 4 -8 11 -5 16 4 5 2 9 -4 9 -5 0 -15 16 -22
34 -7 19 -16 33 -21 30 -4 -3 -15 2 -24 10 -8 9 -23 16 -33 16 -9 0 -21 4 -27
9 -5 5 -26 13 -48 17 -31 5 -38 4 -34 -7 3 -8 9 -14 14 -14 5 -1 25 -9 44 -20
35 -19 35 -19 10 -25 -35 -9 -105 -3 -130 10 -28 15 -20 35 13 35 30 -1 33 6
15 34 -15 25 -3 58 16 42 9 -8 16 -8 20 -2 4 6 13 8 21 5 8 -4 18 1 21 10 8
20 24 21 24 1 0 -8 5 -15 11 -15 6 0 9 7 5 15 -8 21 -1 19 30 -10 33 -30 40
-31 47 -4 3 12 10 18 15 15 5 -3 12 5 14 19 3 13 2 23 -1 21 -3 -2 -25 6 -47
18 l-42 22 24 21 c14 12 33 25 44 28 11 4 20 11 20 16 0 6 4 8 8 5 4 -3 13 8
19 25 7 17 7 31 2 35 -5 3 -9 16 -9 30 0 20 -5 24 -30 24 -16 0 -30 -4 -30 -9
0 -5 -9 -7 -20 -4 -30 8 -27 51 5 63 14 5 35 9 48 7 19 -2 22 3 24 33 2 59 6
67 12 28 5 -30 9 -36 21 -28 13 9 13 11 0 20 -9 6 -10 10 -3 10 6 0 14 -4 17
-9 6 -10 13 -9 59 4 29 8 35 31 16 66 -6 11 -8 25 -6 32 2 7 12 -12 21 -40 10
-29 22 -55 27 -59 6 -3 25 1 44 10 25 12 33 21 28 34 -3 11 0 9 11 -5 18 -24
50 -30 61 -13 5 8 11 7 21 -1 11 -9 15 -8 20 5 3 9 10 14 14 11 5 -3 25 15 45
40 21 25 42 42 47 39 5 -3 31 17 59 46 27 28 49 48 49 45 0 -4 7 0 15 9 8 8
15 18 15 23 0 4 9 14 20 21 11 7 17 18 14 27 -5 11 1 15 19 15 22 0 42 27 38
53 -1 4 5 7 13 7 8 0 18 9 21 20 3 11 11 20 16 20 6 0 8 4 5 9 -3 5 6 21 19
35 24 26 29 38 26 64 -1 6 6 12 15 12 10 0 14 5 10 15 -3 8 -1 15 4 15 5 0 7
6 4 14 -3 8 0 17 5 21 6 3 9 10 6 15 -8 13 25 92 47 113 17 17 23 36 19 65 -1
6 6 12 15 12 12 0 14 3 5 13 -8 10 -7 17 1 25 7 7 8 12 3 12 -6 0 -4 4 4 9 21
13 26 150 7 157 -18 7 -15 28 7 52 9 10 14 22 10 26 -4 3 -8 19 -10 34 -4 45
-10 76 -16 97 -4 11 -11 72 -16 135 -7 88 -7 120 3 135 7 11 23 54 35 95 13
41 27 86 33 100 6 17 6 26 -1 28 -6 2 2 28 19 62 67 132 104 287 98 402 -3 43
-10 84 -16 90 -7 7 -12 20 -12 30 0 10 -14 46 -30 79 -38 74 -65 88 -150 78
-79 -9 -160 -48 -324 -158 -76 -51 -140 -90 -143 -87 -3 3 -13 -3 -22 -13 -26
-30 -128 -63 -152 -50 -12 6 -23 8 -26 5 -4 -3 -11 -2 -18 4 -6 5 -31 12 -56
15 -61 8 -81 14 -106 37 -12 11 -26 17 -32 13 -6 -3 -11 1 -11 10 0 9 -4 14
-10 10 -5 -3 -18 2 -30 12 -11 10 -25 19 -30 19 -6 1 -11 3 -12 4 -2 1 -16 4
-31 6 -16 1 -53 8 -84 14 -30 7 -102 12 -159 12 -91 1 -110 4 -138 23 -17 12
-37 20 -43 18 -6 -2 -14 5 -18 17 -5 15 -12 19 -25 15 -17 -5 -90 41 -165 104
-32 27 -188 199 -229 252 -49 64 -110 119 -130 118 -6 0 -33 -9 -61 -20z m855
-1487 c0 -24 7 -43 19 -54 10 -8 27 -38 37 -64 10 -27 25 -57 34 -67 21 -25
38 -98 29 -124 -9 -24 0 -30 18 -12 8 8 13 2 18 -23 4 -18 11 -38 16 -43 8
-11 20 -56 23 -90 1 -11 10 -33 21 -49 22 -33 27 -50 26 -87 -1 -14 8 -35 19
-47 11 -11 20 -23 20 -26 0 -2 -26 -3 -57 0 -32 2 -52 1 -45 -2 6 -3 12 -10
12 -16 0 -6 -6 -6 -15 2 -8 7 -12 16 -10 21 6 9 -37 41 -51 38 -5 -1 -22 1
-37 6 -38 10 -60 -10 -33 -31 14 -10 22 -11 27 -3 4 7 11 4 20 -9 8 -10 25
-23 39 -27 14 -4 45 -21 69 -38 43 -29 44 -31 23 -40 -18 -8 -27 -6 -45 11
-13 12 -29 22 -36 22 -7 0 -26 9 -42 21 -22 15 -27 17 -23 5 11 -28 -22 -18
-62 19 -21 19 -44 35 -52 35 -9 0 -13 7 -9 20 3 13 0 20 -9 20 -11 0 -12 4 -4
19 14 28 13 41 -6 41 -8 0 -12 5 -9 10 4 6 10 8 14 6 4 -3 15 6 25 20 11 13
23 24 28 24 17 0 57 55 58 78 0 12 -4 22 -9 22 -5 0 -12 13 -16 29 -7 34 -29
56 -45 46 -6 -4 -30 5 -54 19 -24 14 -46 23 -49 20 -2 -3 -20 4 -38 15 -18 11
-36 18 -40 15 -4 -2 -11 0 -14 6 -5 8 -11 8 -20 0 -10 -8 -15 -3 -24 21 -11
32 -7 54 9 44 5 -3 18 7 29 21 13 16 27 24 36 20 9 -3 23 3 32 14 10 11 23 20
29 20 28 0 54 38 54 78 0 32 6 47 27 66 33 31 43 26 43 -22z m-276 -206 c-6
-16 -24 -13 -24 5 0 6 5 7 10 4 6 -3 10 -1 10 6 0 7 2 10 5 7 3 -3 3 -13 -1
-22z m-130 -43 c4 -5 13 -8 19 -8 18 0 20 -31 2 -48 -8 -9 -15 -27 -15 -41 0
-35 23 -106 34 -106 4 0 5 -11 2 -25 -5 -18 -2 -25 9 -25 8 0 15 -7 15 -15 0
-8 -7 -15 -15 -15 -12 0 -13 -4 -6 -18 13 -25 -13 -40 -62 -35 -26 2 -36 0
-35 -9 2 -8 -9 -14 -24 -16 -20 -2 -28 1 -28 13 0 13 -14 15 -87 14 -119 -2
-120 -2 -126 21 -4 17 0 20 31 22 21 1 53 1 74 0 20 -1 49 3 64 8 l28 11 -24
13 c-14 7 -27 9 -30 6 -12 -16 -40 -19 -40 -5 0 14 -20 19 -67 16 -11 -1 -24
2 -27 7 -7 13 5 53 15 47 4 -3 25 1 46 10 27 12 34 18 24 24 -11 7 -9 10 8 16
12 3 19 10 16 15 -3 5 6 12 20 16 14 3 25 10 25 15 0 5 9 9 20 9 11 0 20 7 20
15 0 17 40 56 50 50 4 -2 16 2 26 10 22 17 28 18 38 8z m-454 -267 c0 -2 -15
-6 -34 -8 -19 -2 -32 0 -30 4 5 8 64 12 64 4z m-253 -32 c-3 -3 -12 -4 -19 -1
-8 3 -5 6 6 6 11 1 17 -2 13 -5z m-70 -10 c-3 -3 -12 -4 -19 -1 -8 3 -5 6 6 6
11 1 17 -2 13 -5z m1103 -78 c0 -3 -4 -8 -10 -11 -5 -3 -10 -1 -10 4 0 6 5 11
10 11 6 0 10 -2 10 -4z m-960 -186 c-8 -5 -19 -10 -25 -10 -5 0 -3 5 5 10 8 5
20 10 25 10 6 0 3 -5 -5 -10z m105 0 c-3 -5 -12 -10 -18 -10 -7 0 -6 4 3 10
19 12 23 12 15 0z m-85 -55 c0 -2 -10 -9 -22 -15 -22 -11 -22 -10 -4 4 21 17
26 19 26 11z m-200 -49 c0 -2 -8 -10 -17 -17 -16 -13 -17 -12 -4 4 13 16 21
21 21 13z m856 -868 c3 -5 4 -12 1 -14 -7 -7 -47 15 -47 25 0 11 38 2 46 -11z
m-132 -20 c-6 -10 -4 -10 8 0 19 15 47 6 70 -22 15 -18 19 -19 28 -6 5 8 10
10 10 5 0 -22 -22 -34 -47 -24 -14 5 -29 7 -34 3 -5 -3 -12 2 -15 10 -3 9 -15
16 -26 16 -17 0 -18 3 -8 15 15 18 24 20 14 3z m326 -19 c0 -4 -7 -9 -15 -13
-8 -3 -15 -1 -15 3 0 5 -3 17 -6 26 -6 15 -4 15 15 4 11 -8 21 -17 21 -20z
m113 -61 c26 -16 36 -27 32 -39 -7 -22 31 -64 66 -72 44 -11 42 6 -7 48 -38
34 -45 45 -39 63 5 17 10 20 19 13 7 -6 29 -11 50 -13 20 -1 40 -6 42 -10 3
-4 13 -8 23 -8 10 0 43 -18 75 -41 31 -22 56 -37 55 -32 -7 39 26 14 47 -35
26 -63 12 -72 -24 -16 -13 19 -28 33 -35 31 -7 -2 -24 -1 -38 3 -52 15 -56 -5
-11 -52 46 -47 53 -64 22 -54 -63 19 -63 19 -55 6 5 -7 9 -35 11 -62 2 -35 -1
-48 -12 -48 -13 0 -40 38 -36 53 1 4 -4 7 -12 7 -7 0 -21 11 -30 25 -9 14 -23
25 -31 25 -8 0 -15 4 -15 9 0 4 -20 14 -45 21 -46 13 -69 30 -41 30 9 0 16 5
16 11 0 5 -4 8 -9 5 -16 -10 -80 64 -73 86 1 4 -7 10 -18 13 -11 4 -18 11 -15
16 4 5 2 9 -4 9 -19 0 -33 39 -19 54 11 12 17 12 43 -5 17 -11 47 -29 68 -41z
m-203 -45 c18 -43 45 -109 61 -146 16 -38 38 -81 50 -95 21 -27 9 -46 -14 -23
-15 15 -32 14 -19 -1 5 -7 13 -24 17 -37 7 -22 5 -22 -40 10 -26 19 -73 48
-104 64 -122 67 -169 105 -126 105 8 0 14 3 13 8 -6 20 29 52 57 52 32 0 75
19 45 20 -12 0 -12 2 -2 8 8 5 10 16 6 27 -5 13 -4 16 4 11 19 -11 15 41 -5
71 -17 25 -17 26 3 15 12 -7 35 -44 54 -89z m-270 57 c0 -5 -2 -10 -4 -10 -3
0 -8 5 -11 10 -3 6 -1 10 4 10 6 0 11 -4 11 -10z m-27 -60 c9 -10 9 -11 0 -6
-7 4 -13 2 -13 -3 0 -6 4 -11 9 -11 5 0 7 -9 4 -20 -4 -13 1 -22 13 -27 11 -4
25 -12 31 -19 15 -15 36 -65 29 -71 -7 -7 -76 59 -76 73 0 8 -4 14 -10 14 -5
0 -10 11 -10 25 0 33 -26 32 -34 -1 l-7 -26 -29 28 c-47 46 -40 60 25 59 31
-1 61 -7 68 -15z m57 -12 c0 -19 -2 -20 -10 -8 -5 8 -10 11 -10 7 0 -5 -5 -5
-11 -1 -8 4 -7 9 2 15 22 14 29 11 29 -13z m-27 -33 c-3 -9 -8 -14 -10 -11 -3
3 -2 9 2 15 9 16 15 13 8 -4z m957 -82 c0 -17 -15 -24 -35 -17 -19 8 -14 30 6
26 11 -3 12 -1 2 9 -7 7 -13 20 -13 29 0 18 39 -28 40 -47z m-1010 32 c7 -9
10 -18 7 -22 -8 -7 -37 15 -37 28 0 14 16 11 30 -6z m499 -72 c18 -16 29 -19
37 -12 8 7 14 7 19 -1 3 -5 15 -10 26 -10 16 0 19 -4 13 -22 -6 -21 -6 -21 11
-4 17 16 19 16 47 -11 23 -22 26 -29 13 -31 -9 -2 -22 2 -30 8 -8 6 -18 9 -23
6 -12 -7 -62 38 -62 56 0 8 -3 9 -11 1 -7 -7 -1 -24 20 -56 37 -54 38 -62 9
-45 -13 7 -26 12 -31 13 -17 0 -84 88 -80 105 3 10 -2 20 -12 24 -9 3 -13 11
-10 16 7 11 16 6 64 -37z m-464 7 c-3 -5 -1 -10 4 -10 6 0 11 -7 11 -15 0 -8
-4 -15 -10 -15 -5 0 -10 7 -10 15 0 8 -5 15 -11 15 -5 0 -7 5 -4 10 3 6 11 10
16 10 6 0 7 -4 4 -10z m244 -129 c29 -40 26 -46 -9 -21 -16 12 -30 28 -30 36
0 23 17 16 39 -15z m36 9 c10 -11 16 -20 13 -20 -3 0 -13 9 -23 20 -10 11 -16
20 -13 20 3 0 13 -9 23 -20z m25 -40 c0 -5 -4 -10 -10 -10 -5 0 -10 5 -10 10
0 6 5 10 10 10 6 0 10 -4 10 -10z m17 -36 c-3 -3 -12 -4 -19 -1 -8 3 -5 6 6 6
11 1 17 -2 13 -5z"/>
<path d="M2226 3233 c-11 -11 -6 -23 9 -23 8 0 15 4 15 9 0 13 -16 22 -24 14z"/>
<path d="M1773 3314 c0 -16 23 -19 31 -5 3 5 -2 11 -12 13 -11 3 -19 0 -19 -8z"/>
<path d="M2793 2300 c7 -48 57 -134 69 -122 11 11 -6 74 -26 95 -6 6 -20 23
-30 37 l-18 25 5 -35z"/>
<path d="M2840 2001 c0 -5 5 -13 10 -16 6 -3 10 -2 10 4 0 5 -4 13 -10 16 -5
3 -10 2 -10 -4z"/>
</g>
</svg>
