<?xml version="1.0" standalone="no"?>
<!DOCTYPE svg PUBLIC "-//W3C//DTD SVG 20010904//EN"
 "http://www.w3.org/TR/2001/REC-SVG-20010904/DTD/svg10.dtd">
<svg version="1.0" xmlns="http://www.w3.org/2000/svg"
 width="433.000000pt" height="577.000000pt" viewBox="0 0 433.000000 577.000000"
 preserveAspectRatio="xMidYMid meet">

<g transform="translate(0.000000,577.000000) scale(0.100000,-0.100000)"
fill="#000000" stroke="none">
<path d="M2963 4183 c-10 -16 -26 -34 -35 -41 -10 -7 -16 -17 -13 -21 2 -5 -5
-19 -18 -32 -12 -13 -28 -35 -35 -49 -7 -14 -22 -36 -33 -50 -12 -14 -18 -19
-14 -12 16 31 -6 7 -35 -38 -42 -65 -81 -92 -130 -92 -28 1 -40 -4 -43 -16 -4
-15 -5 -15 -6 1 -1 16 -10 18 -68 18 -38 -1 -75 -1 -83 -1 -119 0 -210 -10
-233 -25 -14 -9 -29 -16 -32 -15 -10 4 -75 -34 -75 -42 0 -4 -17 -15 -37 -23
-21 -9 -40 -21 -44 -27 -4 -5 -26 -14 -50 -18 -39 -7 -46 -5 -69 17 -13 14
-41 34 -62 44 -43 22 -110 67 -118 78 -10 16 -75 48 -95 46 -11 0 -28 -5 -37
-11 -30 -17 -8 -112 56 -239 30 -60 60 -128 66 -150 7 -22 19 -50 26 -63 8
-12 16 -50 19 -85 2 -34 7 -75 11 -92 3 -16 7 -45 7 -62 1 -18 7 -33 12 -33 6
0 5 -4 -2 -8 -16 -10 -18 -28 -9 -112 7 -70 29 -120 53 -120 4 0 9 -12 9 -27
3 -61 32 -133 53 -133 4 0 26 16 48 35 39 33 40 36 35 83 l-4 50 42 4 c23 2
44 0 46 -4 8 -12 21 -9 39 9 14 14 18 14 26 2 19 -30 9 -36 -51 -34 -54 2 -92
-13 -62 -23 7 -2 12 -10 12 -18 0 -9 -4 -12 -10 -9 -5 3 -10 1 -10 -4 0 -6 5
-11 12 -11 6 0 9 -3 5 -6 -11 -11 64 -73 96 -80 18 -3 38 -11 44 -16 7 -6 33
-11 58 -11 25 0 45 -4 45 -9 0 -5 6 -6 13 -1 6 4 28 8 47 9 62 2 71 4 66 13
-4 5 8 12 25 16 22 5 29 11 24 22 -4 12 -2 13 8 5 14 -12 37 1 37 20 0 4 9 17
21 29 20 20 20 21 2 41 -18 21 -18 21 5 9 18 -10 22 -9 22 4 0 10 5 13 13 9 6
-4 5 1 -4 12 -9 10 -14 25 -12 32 3 8 -1 10 -11 6 -9 -3 -16 -1 -16 5 0 6 9
11 21 11 11 0 19 5 17 12 -6 16 -48 21 -65 7 -19 -17 -29 -3 -10 15 8 8 17 13
20 10 3 -3 18 1 34 9 36 19 91 23 126 9 15 -7 31 -11 35 -11 26 4 82 -3 82
-10 0 -4 -11 -6 -25 -3 -15 2 -25 0 -25 -7 0 -6 9 -11 19 -11 11 0 23 -5 26
-10 4 -7 -3 -9 -22 -6 -16 3 -12 0 11 -7 l39 -13 -32 -14 c-20 -8 -28 -16 -21
-20 7 -4 11 -10 11 -14 -1 -3 -1 -14 -1 -23 0 -13 2 -15 8 -5 9 14 42 6 42
-10 0 -6 -6 -8 -13 -5 -10 4 -13 -2 -9 -19 2 -13 9 -24 15 -24 6 0 8 -3 5 -6
-4 -3 -26 7 -50 22 -23 15 -37 20 -30 11 10 -11 11 -21 3 -35 -8 -15 -7 -23 5
-33 20 -16 44 -20 44 -8 0 6 6 9 13 8 23 -3 40 1 34 8 -4 3 3 13 14 21 l22 15
-24 19 -24 19 26 -12 c23 -10 30 -8 48 10 22 22 19 51 -5 51 -8 0 -14 7 -14
15 0 9 6 12 15 9 8 -4 15 -2 15 3 0 5 18 7 40 5 27 -3 40 0 40 8 0 7 6 10 13
7 21 -8 18 49 -3 68 -11 10 -17 22 -13 28 3 6 1 7 -6 3 -6 -4 -23 2 -37 13
-44 34 -90 45 -116 27 -26 -18 -61 -21 -89 -6 -22 12 -25 30 -5 30 8 0 28 14
46 30 18 17 38 30 46 30 8 0 14 4 14 9 0 5 10 11 23 13 15 2 21 9 19 21 -2 9
2 17 8 17 6 0 9 -4 5 -9 -8 -13 9 -21 50 -25 45 -4 53 -12 20 -20 -14 -4 -23
-11 -20 -16 3 -5 12 -7 20 -3 8 3 15 1 15 -5 0 -6 10 -8 23 -5 18 4 19 3 7 -6
-13 -9 -13 -11 3 -11 9 0 17 -4 17 -10 0 -5 3 -9 8 -8 4 1 22 -1 41 -5 32 -7
33 -9 26 -39 -4 -18 -7 -41 -7 -50 1 -10 -3 -18 -9 -18 -5 0 -9 -7 -9 -15 0
-8 -9 -23 -20 -32 -11 -10 -20 -28 -20 -40 0 -13 -4 -23 -9 -23 -15 0 -91 -82
-91 -97 0 -8 -4 -11 -10 -8 -5 3 -10 1 -10 -4 0 -6 -3 -10 -7 -10 -41 7 -44
-1 -17 -38 l28 -38 -39 35 c-21 19 -35 30 -32 24 7 -12 -36 -29 -62 -25 -12 2
-11 -2 2 -23 37 -56 11 -35 -63 51 -5 7 -17 10 -25 7 -11 -5 -12 -11 -4 -27 9
-19 8 -19 -9 2 -13 16 -21 20 -26 12 -4 -6 -5 -15 -1 -20 3 -6 3 -28 -1 -49
-5 -33 -10 -39 -25 -35 -14 4 -19 0 -19 -13 -1 -18 -1 -18 -11 -1 -12 21 -35
22 -43 2 -3 -8 -9 -14 -13 -14 -4 1 -16 -1 -27 -6 -11 -5 -21 -3 -25 4 -4 7
-12 11 -17 10 -5 -2 -25 0 -44 4 -19 4 -50 3 -67 -2 -24 -7 -35 -6 -44 5 -6 8
-18 14 -25 14 -8 0 -22 4 -32 9 -52 26 -95 41 -104 35 -6 -4 -8 -2 -5 3 8 12
-14 23 -47 23 -23 0 -56 -28 -56 -47 0 -6 -7 -13 -15 -17 -8 -3 -15 -16 -15
-30 0 -14 -5 -28 -10 -31 -6 -4 -8 -11 -5 -16 4 -5 2 -9 -3 -9 -5 0 -8 -19 -7
-42 0 -24 -2 -55 -6 -70 -4 -16 -3 -30 2 -34 6 -4 5 -12 -4 -22 -22 -26 -27
-82 -13 -137 13 -49 7 -97 -15 -110 -16 -11 -243 -6 -315 6 -76 13 -104 6
-104 -28 0 -26 110 -132 149 -143 20 -5 104 -10 187 -10 174 0 171 1 198 -92
16 -56 44 -90 87 -103 29 -10 23 -25 -11 -25 -17 0 -30 -5 -30 -12 0 -30 22
-90 35 -95 8 -3 23 -19 34 -37 17 -26 18 -38 10 -74 -5 -23 -7 -53 -3 -66 4
-19 0 -28 -19 -40 -14 -10 -35 -44 -52 -85 l-27 -69 18 -38 c37 -73 142 -101
262 -69 86 23 108 38 123 82 14 44 8 239 -9 268 -11 20 -11 20 -12 -1 0 -29
-31 -40 -47 -18 -18 24 -16 38 5 57 23 21 29 21 36 0 5 -17 3 0 -11 109 -13
105 22 131 143 104 92 -20 149 -20 238 -2 108 23 110 20 102 -123 -7 -121 -4
-133 42 -180 7 -7 12 -23 10 -35 -2 -16 -10 -21 -33 -21 -25 0 -31 -5 -37 -30
-9 -42 7 -120 38 -180 37 -71 45 -78 77 -66 15 6 27 7 27 2 0 -14 -28 -33 -40
-26 -5 3 -10 4 -10 1 0 -15 76 -45 142 -55 59 -10 86 -10 116 0 39 11 40 12
35 53 -4 33 -14 50 -50 84 -42 39 -43 42 -20 42 52 0 124 -112 95 -148 -10
-11 -8 -13 12 -10 17 2 26 10 28 27 6 38 -5 65 -48 111 -45 51 -53 83 -18 78
28 -4 98 -102 98 -137 1 -25 1 -26 16 -6 8 11 13 30 11 43 -2 12 0 22 5 22 16
0 -17 38 -63 74 -24 18 -55 54 -69 80 -13 25 -32 46 -40 46 -49 0 -54 71 -9
121 17 19 37 49 44 67 17 38 42 140 49 197 3 22 14 58 26 80 12 24 18 49 15
63 -3 12 1 37 9 55 29 64 40 224 23 332 -4 28 -10 70 -12 95 -12 113 -51 230
-105 315 -21 33 -62 98 -91 145 -29 47 -59 90 -67 96 -19 14 -25 91 -10 124 6
14 15 35 20 46 8 17 18 94 12 94 -1 0 -15 -7 -30 -15 -20 -10 -23 -15 -11 -15
9 0 17 -4 17 -10 0 -5 -6 -10 -14 -10 -8 0 -18 -9 -21 -20 -3 -11 -12 -20 -20
-20 -16 0 -27 38 -11 44 6 2 1 5 -11 5 -13 1 -23 6 -23 11 0 6 -8 10 -17 11
-15 0 -15 2 2 9 11 5 14 9 7 9 -16 1 -43 27 -36 34 3 3 -21 13 -53 22 -32 10
-73 23 -91 31 -18 8 -47 14 -65 13 -18 0 -26 -3 -19 -6 7 -3 19 -18 28 -34 8
-16 18 -28 22 -25 4 2 15 -7 25 -20 10 -13 13 -24 7 -24 -5 0 -10 4 -10 10 0
5 -7 7 -15 4 -8 -4 -12 -10 -9 -15 3 -6 -21 -8 -63 -5 -49 4 -67 9 -65 18 3
16 31 86 42 110 7 13 0 20 -38 36 -26 11 -56 22 -67 24 -11 2 -19 11 -17 18 3
11 -1 10 -16 -3 -10 -9 -22 -17 -27 -17 -5 0 0 7 11 15 31 23 -4 18 -44 -7
-24 -15 -33 -17 -30 -7 5 17 88 62 88 48 0 -6 7 -6 20 1 11 6 19 19 18 28 -2
13 4 16 30 14 19 -2 32 1 32 8 0 6 4 9 9 5 6 -3 15 4 22 16 8 17 8 23 -1 29
-7 4 -9 13 -6 19 5 8 0 8 -17 2 -14 -6 -29 -6 -38 0 -19 12 -27 11 -32 -3 -2
-7 -2 -1 0 15 3 15 0 27 -6 27 -6 0 -11 8 -11 18 0 12 -3 13 -8 5 -5 -7 -7
-26 -6 -42 1 -22 -2 -28 -12 -24 -8 3 -14 9 -14 15 0 5 5 6 10 3 6 -3 10 -1
10 4 0 6 -5 11 -11 11 -6 0 -8 8 -5 18 4 10 -2 7 -14 -8 l-21 -25 7 30 c4 17
12 37 18 45 5 8 7 12 2 8 -5 -4 -17 -3 -27 3 -15 8 -19 6 -20 -8 -1 -10 -1
-22 1 -28 1 -7 -2 -7 -9 0 -15 15 1 78 22 81 9 1 17 -2 17 -6 0 -5 8 -8 19 -7
16 1 18 8 16 49 -2 33 1 48 9 45 6 -2 10 -11 8 -20 -2 -11 3 -14 18 -10 11 3
20 10 20 15 0 5 -5 6 -12 2 -6 -4 -8 -3 -4 4 6 11 37 9 56 -3 6 -4 20 4 31 17
l20 23 -12 -25 c-12 -25 -12 -25 10 -6 11 11 21 14 21 8 0 -6 16 -9 40 -7 33
3 40 0 38 -13 -2 -11 9 -19 35 -25 32 -8 37 -12 31 -29 -5 -18 -3 -20 20 -16
25 5 26 4 20 -28 -4 -23 -2 -34 5 -34 7 0 10 3 7 8 -2 4 2 16 10 27 13 18 14
18 14 -7 0 -35 10 -59 21 -52 5 3 10 2 10 -3 7 -49 6 -69 -2 -86 -9 -15 -8
-18 1 -12 8 5 23 -3 39 -21 31 -35 74 -64 95 -64 23 0 46 53 46 108 0 38 -6
57 -27 85 -31 40 -47 45 -62 20 -9 -15 -10 -12 -7 13 2 18 15 54 30 80 17 29
29 69 32 99 2 28 1 43 -2 35 -24 -58 -38 -79 -60 -89 -34 -15 -34 -15 -34 14
0 39 34 145 46 145 6 0 9 19 8 48 -4 63 7 81 34 54 13 -13 19 -28 15 -41 -6
-22 12 -30 20 -8 7 19 -22 107 -38 114 -8 3 -15 11 -15 19 0 8 -4 14 -9 14 -5
0 -17 8 -27 17 -16 16 -18 15 -39 -11 l-23 -28 4 33 c3 29 1 31 -9 18 -14 -19
-38 -14 -30 7 9 24 -5 16 -24 -13z m-536 -395 c-3 -8 -6 -5 -6 6 -1 11 2 17 5
13 3 -3 4 -12 1 -19z m-36 -38 c7 0 9 -3 5 -7 -4 -5 -10 -7 -12 -5 -3 2 -13
-7 -22 -19 -17 -20 -19 -20 -32 -3 -14 16 -13 17 4 11 16 -6 17 -5 6 8 -7 8
-8 15 -2 15 5 0 13 10 16 23 l7 22 9 -22 c5 -13 15 -23 21 -23z m152 -95 c-3
-9 -8 -14 -10 -11 -3 3 -2 9 2 15 9 16 15 13 8 -4z m13 -134 c-1 -16 -4 -27
-8 -25 -3 2 -10 -7 -15 -21 -5 -15 -12 -22 -20 -17 -9 5 -4 19 15 50 15 23 27
42 28 42 1 0 1 -13 0 -29z m-165 -44 c-8 -8 -11 -3 -11 19 1 25 2 27 11 11 8
-14 8 -22 0 -30z m-317 -50 c13 -33 11 -61 -5 -51 -5 3 -9 -1 -10 -8 -2 -23
-17 36 -18 70 -1 40 14 34 33 -11z m300 18 c3 -8 1 -15 -4 -15 -6 0 -10 7 -10
15 0 8 2 15 4 15 2 0 6 -7 10 -15z m-390 -90 c19 -39 27 -42 50 -20 10 10 17
12 21 4 12 -19 -12 -32 -66 -36 -28 -2 -69 -13 -91 -24 l-40 -20 7 23 c11 35
21 43 56 46 41 3 43 5 29 32 -10 18 -9 21 1 15 9 -6 11 -3 6 9 -12 30 10 7 27
-29z m116 -102 c0 -13 -4 -23 -9 -23 -12 0 -21 38 -14 57 8 20 23 -3 23 -34z
m-195 -125 c17 -33 13 -37 -28 -29 -33 8 -33 7 -20 75 5 25 3 27 -15 22 -11
-4 -23 -3 -26 3 -3 5 6 13 21 19 26 8 29 6 41 -27 7 -20 19 -48 27 -63z m325
78 c0 -4 -9 -6 -19 -3 -13 3 -21 -2 -25 -15 -3 -13 -10 -18 -19 -15 -8 3 -20
0 -27 -6 -10 -10 -12 -8 -6 6 3 10 6 22 6 27 0 9 31 16 67 16 13 -1 23 -5 23
-10z m70 -36 c0 -5 -2 -10 -4 -10 -3 0 -8 5 -11 10 -3 6 -1 10 4 10 6 0 11 -4
11 -10z m825 -30 c-3 -5 -16 -10 -28 -9 -20 1 -20 2 3 9 14 4 26 8 28 9 2 1 0
-3 -3 -9z m-784 -72 c-14 -6 -14 -7 0 -7 17 -1 34 -29 24 -39 -3 -3 -5 0 -5 8
0 10 -3 10 -15 0 -13 -11 -19 -9 -33 11 -9 13 -15 34 -13 48 1 13 -1 21 -7 17
-5 -3 -13 1 -16 10 -3 8 -2 12 4 9 6 -3 10 -1 10 6 0 6 15 -3 33 -22 28 -28
31 -35 18 -41z m-303 14 c2 -16 -4 -25 -21 -31 -14 -6 -30 -18 -36 -28 -6 -10
-11 -13 -11 -6 0 6 5 15 10 18 16 10 1 25 -25 25 -22 0 -40 22 -28 34 4 3 17
6 30 6 17 0 22 -4 17 -12 -5 -7 3 -5 16 4 31 21 44 18 48 -10z m-154 -88 c25
-10 19 -34 -8 -34 -29 0 -44 19 -25 31 17 11 14 10 33 3z m556 -34 c-20 -13
-33 -13 -25 0 3 6 14 10 23 10 15 0 15 -2 2 -10z m-557 -21 c-8 -8 -16 -8 -30
0 -16 9 -14 10 12 11 21 0 26 -3 18 -11z m562 -29 c3 -5 1 -10 -4 -10 -6 0
-11 5 -11 10 0 6 2 10 4 10 3 0 8 -4 11 -10z m-298 -48 c-17 -19 -72 -28 -81
-13 -5 8 15 18 58 27 11 3 22 7 25 9 13 14 12 -8 -2 -23z m523 -213 c0 -5 -4
-9 -10 -9 -5 0 -10 7 -10 16 0 8 5 12 10 9 6 -3 10 -10 10 -16z m59 -44 c0 -5
-4 -3 -9 5 -5 8 -9 22 -9 30 0 16 17 -16 18 -35z m-214 -25 c3 -5 1 -10 -4
-10 -6 0 -11 5 -11 10 0 6 2 10 4 10 3 0 8 -4 11 -10z m225 -51 c0 -6 -4 -7
-10 -4 -5 3 -10 11 -10 16 0 6 5 7 10 4 6 -3 10 -11 10 -16z m-76 -5 c3 -8 2
-12 -4 -9 -6 3 -10 10 -10 16 0 14 7 11 14 -7z m573 -21 c5 -14 -20 -23 -47
-16 l-22 6 23 13 c26 14 41 14 46 -3z m21 -91 c2 -7 -1 -12 -7 -12 -6 0 -11
-8 -11 -18 0 -19 -65 -62 -94 -62 -27 0 -8 50 33 86 35 32 69 34 79 6z m-2
-117 c-5 -18 -2 -25 7 -25 8 0 29 -8 48 -17 31 -16 32 -18 11 -21 -16 -2 -22
-9 -20 -20 2 -9 -9 -30 -24 -45 -16 -15 -26 -32 -23 -36 6 -10 -18 -21 -45
-21 -10 0 -20 -6 -22 -12 -3 -9 -12 -8 -32 5 -27 18 -27 19 -10 38 17 18 16
19 -25 17 -39 -1 -41 -2 -21 -13 l23 -12 -26 -5 c-14 -3 -32 -1 -39 3 -9 6
-15 1 -18 -19 -4 -18 -12 -27 -23 -26 -9 1 -17 -1 -17 -5 0 -3 -19 -7 -43 -8
-37 -3 -47 2 -76 31 -39 40 -31 48 40 48 31 0 49 5 49 12 0 7 15 18 34 26 21
8 32 18 29 26 -3 8 3 17 13 21 21 7 50 33 38 33 -3 0 -1 7 6 15 14 16 110 18
110 2 0 -5 5 -5 11 -2 6 5 4 11 -7 19 -14 11 -12 13 21 14 35 1 37 0 31 -23z
m-582 -60 c20 -8 39 -14 43 -13 5 2 9 -13 11 -32 1 -20 -1 -30 -5 -23 -11 16
-37 0 -31 -18 3 -8 -1 -29 -8 -48 -8 -18 -14 -43 -14 -54 0 -18 4 -19 46 -13
30 4 62 0 95 -10 42 -14 49 -20 49 -43 -1 -14 -10 -37 -21 -51 -19 -22 -29
-25 -80 -24 -63 1 -70 -6 -44 -43 11 -16 13 -28 5 -47 -11 -31 -17 -32 -72 -7
-24 11 -63 26 -88 35 -47 16 -73 47 -90 105 -10 37 -4 44 53 66 26 10 51 23
55 29 17 28 10 44 -28 61 -48 21 -51 35 -10 35 20 0 30 -5 30 -15 0 -23 17
-18 23 8 3 12 3 38 2 57 -3 29 1 38 18 47 12 6 23 11 23 12 1 0 18 -6 38 -14z
m-534 -61 c0 -11 -10 -7 -34 13 -19 15 -32 31 -30 35 8 12 64 -31 64 -48z m35
-43 c-3 -6 3 -14 12 -20 14 -8 15 -10 3 -11 -8 0 -21 9 -28 20 -10 17 -10 20
4 20 8 0 13 -4 9 -9z m235 -11 c0 -5 -4 -10 -9 -10 -6 0 -13 5 -16 10 -3 6 1
10 9 10 9 0 16 -4 16 -10z m904 -21 c-3 -6 0 -15 7 -20 11 -7 10 -9 -5 -9 -12
0 -16 -5 -12 -15 6 -18 -11 -19 -49 -5 -22 8 -24 12 -13 23 10 10 38 23 76 36
2 1 0 -4 -4 -10z m-258 -147 c-11 -10 -45 10 -39 24 5 13 8 13 24 -2 11 -10
17 -19 15 -22z m78 22 c29 -5 29 -10 1 -28 -14 -9 -25 -12 -25 -6 0 6 -12 15
-27 21 -22 8 -24 12 -13 19 8 6 22 7 30 4 8 -3 23 -7 34 -10z m73 -116 c-3 -7
-5 -2 -5 12 0 14 2 19 5 13 2 -7 2 -19 0 -25z m-168 -165 c17 -15 31 -33 31
-40 0 -16 -2 -16 -36 1 -19 10 -33 12 -45 5 -14 -7 -19 -4 -24 11 -7 23 10 50
30 50 7 0 27 -12 44 -27z m-43 -110 c3 -16 7 -34 10 -40 6 -20 -34 -15 -45 5
-13 24 -3 62 15 62 7 0 16 -12 20 -27z m-811 -315 c15 -67 8 -89 -19 -63 -16
17 -24 114 -9 128 10 11 14 2 28 -65z m295 -18 c0 -5 -5 -10 -11 -10 -5 0 -7
5 -4 10 3 6 8 10 11 10 2 0 4 -4 4 -10z m790 -152 c0 -10 -4 -18 -10 -18 -5 0
-10 15 -10 33 0 24 3 28 10 17 5 -8 10 -23 10 -32z"/>
<path d="M3258 2213 c7 -3 16 -2 19 1 4 3 -2 6 -13 5 -11 0 -14 -3 -6 -6z"/>
<path d="M3171 3824 c0 -11 3 -14 6 -6 3 7 2 16 -1 19 -3 4 -6 -2 -5 -13z"/>
<path d="M2655 3780 c-3 -5 -1 -10 4 -10 6 0 11 5 11 10 0 6 -2 10 -4 10 -3 0
-8 -4 -11 -10z"/>
<path d="M2682 3728 c-17 -17 -15 -28 6 -44 11 -9 13 -13 4 -14 -7 0 -10 -5
-7 -10 5 -8 11 -7 21 1 12 10 12 14 -3 26 -17 14 -17 14 0 9 11 -4 16 -2 12 5
-4 6 -13 8 -21 5 -17 -7 -18 6 -2 22 7 7 10 12 7 12 -3 0 -10 -5 -17 -12z"/>
<path d="M2785 3430 c3 -5 8 -10 11 -10 2 0 4 5 4 10 0 6 -5 10 -11 10 -5 0
-7 -4 -4 -10z"/>
<path d="M2672 2883 c12 -15 11 -15 -8 -5 -17 9 -24 9 -33 -2 -16 -19 35 -62
55 -45 7 6 10 18 7 26 -4 11 -2 14 5 9 7 -4 12 -4 12 1 0 4 -12 13 -26 20 -23
11 -24 10 -12 -4z"/>
<path d="M2610 2835 c0 -9 -4 -13 -10 -10 -6 4 -7 -1 -3 -11 4 -10 8 -13 10
-7 2 6 13 9 23 6 26 -7 26 13 0 27 -16 9 -20 8 -20 -5z"/>
<path d="M1947 2773 c-26 -19 -46 -37 -44 -40 5 -4 51 -14 78 -16 9 0 16 -8
15 -17 -1 -8 8 -16 19 -18 28 -4 51 53 30 74 -17 17 -29 18 -19 2 4 -7 3 -8
-4 -4 -7 4 -12 14 -12 22 0 8 -5 14 -11 14 -5 0 -7 5 -4 10 10 15 4 12 -48
-27z m43 4 c0 -2 -10 -12 -22 -23 l-23 -19 19 23 c18 21 26 27 26 19z"/>
<path d="M2624 2718 c6 -20 -10 -25 -17 -5 -4 8 -6 7 -6 -3 0 -8 4 -22 9 -30
7 -11 10 -11 10 -2 0 7 5 10 10 7 13 -8 13 16 -1 35 -9 13 -10 12 -5 -2z"/>
</g>
</svg>
